<svg xmlns="http://www.w3.org/2000/svg" xmlns:xlink="http://www.w3.org/1999/xlink" width="500" zoomAndPan="magnify" viewBox="0 0 375 374.999991" height="500" preserveAspectRatio="xMidYMid meet" version="1.0"><defs><g/><clipPath id="id1"><path d="M 152.425781 85 L 222.925781 85 L 222.925781 206 L 152.425781 206 Z M 152.425781 85 " clip-rule="nonzero"/></clipPath><clipPath id="id2"><path d="M 187.515625 135.597656 L 215.734375 119.488281 L 215.734375 126.195312 C 206.148438 131.707031 196.558594 137.222656 186.96875 142.734375 L 186.96875 136.03125 L 187.40625 135.816406 C 187.40625 135.816406 187.515625 135.707031 187.515625 135.707031 Z M 179.667969 189.332031 L 186.96875 185.226562 L 186.96875 150.953125 C 196.121094 145.761719 205.273438 140.464844 214.429688 135.273438 L 223.035156 130.410156 L 223.035156 105.757812 C 223.035156 105.433594 222.816406 105.109375 222.601562 105.003906 L 188.277344 85.324219 C 187.949219 85.109375 187.621094 85.109375 187.40625 85.324219 L 153.082031 105.003906 C 152.753906 105.21875 152.644531 105.433594 152.644531 105.757812 L 152.644531 186.414062 C 152.644531 186.738281 152.863281 187.0625 153.082031 187.171875 C 153.40625 187.386719 153.734375 187.386719 153.953125 187.171875 L 172.585938 176.574219 C 172.914062 176.359375 173.023438 176.144531 173.023438 175.820312 L 173.023438 117.542969 C 173.023438 117.21875 173.238281 116.894531 173.457031 116.789062 L 179.886719 113.113281 L 179.886719 157.4375 L 179.777344 157.4375 L 179.777344 181.441406 L 152.863281 196.46875 L 152.644531 205.335938 L 179.777344 189.65625 Z M 186.96875 108.679688 L 187.296875 108.460938 C 187.621094 108.246094 187.949219 108.246094 188.167969 108.460938 L 202.878906 116.894531 C 203.203125 117.113281 203.3125 117.328125 203.3125 117.652344 C 203.3125 117.976562 203.097656 118.300781 202.878906 118.410156 L 186.859375 127.597656 L 186.859375 108.679688 Z M 211.160156 113.328125 L 188.277344 100.246094 C 187.949219 100.027344 187.621094 100.027344 187.40625 100.246094 L 166.265625 112.355469 C 165.9375 112.570312 165.828125 112.785156 165.828125 113.113281 L 165.828125 171.386719 C 165.828125 171.710938 165.613281 172.035156 165.394531 172.144531 L 161.363281 174.523438 C 161.035156 174.738281 160.707031 174.738281 160.492188 174.523438 C 160.164062 174.304688 160.054688 174.089844 160.054688 173.765625 L 160.054688 109.757812 C 160.054688 109.433594 160.273438 109.109375 160.492188 109.003906 L 187.621094 93.433594 C 187.949219 93.21875 188.277344 93.21875 188.496094 93.433594 L 215.625 109.003906 C 215.953125 109.21875 216.0625 109.433594 216.0625 109.757812 L 216.0625 110.625 C 216.0625 110.949219 215.84375 111.273438 215.625 111.382812 L 212.359375 113.21875 C 212.03125 113.4375 211.703125 113.4375 211.484375 113.21875 Z M 211.160156 113.328125 " clip-rule="evenodd"/></clipPath><linearGradient x1="0.748246" gradientTransform="matrix(10.896444, 0, 0, 10.811647, 152.427278, 85.001098)" y1="11.528601" x2="6.918568" gradientUnits="userSpaceOnUse" y2="0.255521" id="id3"><stop stop-opacity="1" stop-color="rgb(20.399475%, 80.799866%, 63.09967%)" offset="0"/><stop stop-opacity="1" stop-color="rgb(20.399475%, 80.799866%, 63.09967%)" offset="0.240977"/><stop stop-opacity="1" stop-color="rgb(20.399475%, 80.799866%, 63.09967%)" offset="0.25"/><stop stop-opacity="1" stop-color="rgb(20.399475%, 80.799866%, 63.09967%)" offset="0.28125"/><stop stop-opacity="1" stop-color="rgb(20.399475%, 80.799866%, 63.09967%)" offset="0.296875"/><stop stop-opacity="1" stop-color="rgb(20.423889%, 80.793762%, 63.241577%)" offset="0.304688"/><stop stop-opacity="1" stop-color="rgb(20.472717%, 80.780029%, 63.53302%)" offset="0.3125"/><stop stop-opacity="1" stop-color="rgb(20.523071%, 80.767822%, 63.829041%)" offset="0.320312"/><stop stop-opacity="1" stop-color="rgb(20.573425%, 80.755615%, 64.125061%)" offset="0.328125"/><stop stop-opacity="1" stop-color="rgb(20.623779%, 80.743408%, 64.421082%)" offset="0.335938"/><stop stop-opacity="1" stop-color="rgb(20.674133%, 80.729675%, 64.717102%)" offset="0.34375"/><stop stop-opacity="1" stop-color="rgb(20.724487%, 80.717468%, 65.013123%)" offset="0.351562"/><stop stop-opacity="1" stop-color="rgb(20.774841%, 80.705261%, 65.309143%)" offset="0.359375"/><stop stop-opacity="1" stop-color="rgb(20.825195%, 80.693054%, 65.605164%)" offset="0.367188"/><stop stop-opacity="1" stop-color="rgb(20.875549%, 80.679321%, 65.901184%)" offset="0.375"/><stop stop-opacity="1" stop-color="rgb(20.925903%, 80.667114%, 66.197205%)" offset="0.382812"/><stop stop-opacity="1" stop-color="rgb(20.976257%, 80.654907%, 66.493225%)" offset="0.390625"/><stop stop-opacity="1" stop-color="rgb(21.026611%, 80.6427%, 66.789246%)" offset="0.398438"/><stop stop-opacity="1" stop-color="rgb(21.076965%, 80.628967%, 67.085266%)" offset="0.40625"/><stop stop-opacity="1" stop-color="rgb(21.127319%, 80.61676%, 67.381287%)" offset="0.414062"/><stop stop-opacity="1" stop-color="rgb(21.177673%, 80.604553%, 67.677307%)" offset="0.421875"/><stop stop-opacity="1" stop-color="rgb(21.228027%, 80.592346%, 67.973328%)" offset="0.429688"/><stop stop-opacity="1" stop-color="rgb(21.278381%, 80.578613%, 68.269348%)" offset="0.4375"/><stop stop-opacity="1" stop-color="rgb(21.328735%, 80.566406%, 68.565369%)" offset="0.445312"/><stop stop-opacity="1" stop-color="rgb(21.379089%, 80.554199%, 68.861389%)" offset="0.453125"/><stop stop-opacity="1" stop-color="rgb(21.429443%, 80.541992%, 69.15741%)" offset="0.460938"/><stop stop-opacity="1" stop-color="rgb(21.479797%, 80.528259%, 69.45343%)" offset="0.46875"/><stop stop-opacity="1" stop-color="rgb(21.530151%, 80.516052%, 69.749451%)" offset="0.476562"/><stop stop-opacity="1" stop-color="rgb(21.580505%, 80.503845%, 70.045471%)" offset="0.484375"/><stop stop-opacity="1" stop-color="rgb(21.630859%, 80.491638%, 70.341492%)" offset="0.492187"/><stop stop-opacity="1" stop-color="rgb(21.681213%, 80.477905%, 70.637512%)" offset="0.5"/><stop stop-opacity="1" stop-color="rgb(21.731567%, 80.465698%, 70.933533%)" offset="0.507812"/><stop stop-opacity="1" stop-color="rgb(21.781921%, 80.453491%, 71.229553%)" offset="0.515625"/><stop stop-opacity="1" stop-color="rgb(21.832275%, 80.439758%, 71.525574%)" offset="0.523438"/><stop stop-opacity="1" stop-color="rgb(21.882629%, 80.427551%, 71.821594%)" offset="0.53125"/><stop stop-opacity="1" stop-color="rgb(21.932983%, 80.415344%, 72.117615%)" offset="0.539062"/><stop stop-opacity="1" stop-color="rgb(21.981812%, 80.403137%, 72.410583%)" offset="0.546875"/><stop stop-opacity="1" stop-color="rgb(22.02301%, 80.39093%, 72.689819%)" offset="0.554688"/><stop stop-opacity="1" stop-color="rgb(22.05658%, 80.378723%, 72.9599%)" offset="0.5625"/><stop stop-opacity="1" stop-color="rgb(22.091675%, 80.36499%, 73.228455%)" offset="0.570312"/><stop stop-opacity="1" stop-color="rgb(22.125244%, 80.352783%, 73.498535%)" offset="0.578125"/><stop stop-opacity="1" stop-color="rgb(22.158813%, 80.340576%, 73.76709%)" offset="0.585938"/><stop stop-opacity="1" stop-color="rgb(22.193909%, 80.328369%, 74.03717%)" offset="0.59375"/><stop stop-opacity="1" stop-color="rgb(22.227478%, 80.316162%, 74.307251%)" offset="0.601562"/><stop stop-opacity="1" stop-color="rgb(22.261047%, 80.303955%, 74.575806%)" offset="0.609375"/><stop stop-opacity="1" stop-color="rgb(22.296143%, 80.291748%, 74.845886%)" offset="0.617188"/><stop stop-opacity="1" stop-color="rgb(22.329712%, 80.279541%, 75.115967%)" offset="0.625"/><stop stop-opacity="1" stop-color="rgb(22.363281%, 80.265808%, 75.384521%)" offset="0.632812"/><stop stop-opacity="1" stop-color="rgb(22.398376%, 80.253601%, 75.654602%)" offset="0.640625"/><stop stop-opacity="1" stop-color="rgb(22.431946%, 80.241394%, 75.923157%)" offset="0.648438"/><stop stop-opacity="1" stop-color="rgb(22.465515%, 80.229187%, 76.193237%)" offset="0.65625"/><stop stop-opacity="1" stop-color="rgb(22.50061%, 80.21698%, 76.463318%)" offset="0.664062"/><stop stop-opacity="1" stop-color="rgb(22.53418%, 80.204773%, 76.731873%)" offset="0.671875"/><stop stop-opacity="1" stop-color="rgb(22.567749%, 80.192566%, 77.001953%)" offset="0.679688"/><stop stop-opacity="1" stop-color="rgb(22.602844%, 80.180359%, 77.272034%)" offset="0.6875"/><stop stop-opacity="1" stop-color="rgb(22.636414%, 80.166626%, 77.540588%)" offset="0.695312"/><stop stop-opacity="1" stop-color="rgb(22.669983%, 80.154419%, 77.810669%)" offset="0.703125"/><stop stop-opacity="1" stop-color="rgb(22.705078%, 80.142212%, 78.079224%)" offset="0.710938"/><stop stop-opacity="1" stop-color="rgb(22.738647%, 80.130005%, 78.349304%)" offset="0.71875"/><stop stop-opacity="1" stop-color="rgb(22.772217%, 80.117798%, 78.619385%)" offset="0.726562"/><stop stop-opacity="1" stop-color="rgb(22.807312%, 80.105591%, 78.887939%)" offset="0.734375"/><stop stop-opacity="1" stop-color="rgb(22.840881%, 80.093384%, 79.15802%)" offset="0.742188"/><stop stop-opacity="1" stop-color="rgb(22.874451%, 80.081177%, 79.428101%)" offset="0.75"/><stop stop-opacity="1" stop-color="rgb(22.909546%, 80.067444%, 79.696655%)" offset="0.757812"/><stop stop-opacity="1" stop-color="rgb(22.943115%, 80.055237%, 79.966736%)" offset="0.759023"/><stop stop-opacity="1" stop-color="rgb(22.9599%, 80.049133%, 80.101013%)" offset="0.765625"/><stop stop-opacity="1" stop-color="rgb(22.976685%, 80.04303%, 80.235291%)" offset="0.773438"/><stop stop-opacity="1" stop-color="rgb(23.01178%, 80.030823%, 80.505371%)" offset="0.78125"/><stop stop-opacity="1" stop-color="rgb(23.045349%, 80.018616%, 80.775452%)" offset="0.789062"/><stop stop-opacity="1" stop-color="rgb(23.078918%, 80.006409%, 81.044006%)" offset="0.796875"/><stop stop-opacity="1" stop-color="rgb(23.11554%, 79.998779%, 81.298828%)" offset="0.804688"/><stop stop-opacity="1" stop-color="rgb(23.152161%, 79.998779%, 81.538391%)" offset="0.8125"/><stop stop-opacity="1" stop-color="rgb(23.188782%, 79.998779%, 81.776428%)" offset="0.820312"/><stop stop-opacity="1" stop-color="rgb(23.223877%, 79.998779%, 82.014465%)" offset="0.828125"/><stop stop-opacity="1" stop-color="rgb(23.260498%, 79.998779%, 82.252502%)" offset="0.835938"/><stop stop-opacity="1" stop-color="rgb(23.297119%, 79.998779%, 82.489014%)" offset="0.84375"/><stop stop-opacity="1" stop-color="rgb(23.33374%, 79.998779%, 82.727051%)" offset="0.851562"/><stop stop-opacity="1" stop-color="rgb(23.370361%, 79.998779%, 82.965088%)" offset="0.859375"/><stop stop-opacity="1" stop-color="rgb(23.406982%, 79.998779%, 83.203125%)" offset="0.867188"/><stop stop-opacity="1" stop-color="rgb(23.443604%, 79.998779%, 83.441162%)" offset="0.875"/><stop stop-opacity="1" stop-color="rgb(23.480225%, 79.998779%, 83.679199%)" offset="0.882812"/><stop stop-opacity="1" stop-color="rgb(23.516846%, 79.998779%, 83.91571%)" offset="0.890625"/><stop stop-opacity="1" stop-color="rgb(23.553467%, 79.998779%, 84.153748%)" offset="0.898438"/><stop stop-opacity="1" stop-color="rgb(23.590088%, 79.998779%, 84.391785%)" offset="0.90625"/><stop stop-opacity="1" stop-color="rgb(23.626709%, 79.998779%, 84.629822%)" offset="0.914062"/><stop stop-opacity="1" stop-color="rgb(23.66333%, 79.998779%, 84.867859%)" offset="0.921875"/><stop stop-opacity="1" stop-color="rgb(23.699951%, 79.998779%, 85.105896%)" offset="0.929688"/><stop stop-opacity="1" stop-color="rgb(23.736572%, 79.998779%, 85.342407%)" offset="0.9375"/><stop stop-opacity="1" stop-color="rgb(23.773193%, 79.998779%, 85.580444%)" offset="0.945312"/><stop stop-opacity="1" stop-color="rgb(23.809814%, 79.998779%, 85.818481%)" offset="0.953125"/><stop stop-opacity="1" stop-color="rgb(23.846436%, 79.998779%, 86.056519%)" offset="0.960938"/><stop stop-opacity="1" stop-color="rgb(23.883057%, 79.998779%, 86.294556%)" offset="0.96875"/><stop stop-opacity="1" stop-color="rgb(23.919678%, 79.998779%, 86.532593%)" offset="0.976562"/><stop stop-opacity="1" stop-color="rgb(23.956299%, 79.998779%, 86.769104%)" offset="0.984375"/><stop stop-opacity="1" stop-color="rgb(23.99292%, 79.998779%, 87.007141%)" offset="0.992188"/><stop stop-opacity="1" stop-color="rgb(24.029541%, 79.998779%, 87.245178%)" offset="1"/></linearGradient></defs><rect x="-37.5" width="450" fill="#ffffff" y="-37.499999" height="449.999989" fill-opacity="1"/><rect x="-37.5" width="450" fill="#000d0e" y="-37.499999" height="449.999989" fill-opacity="1"/><rect x="-37.5" width="450" fill="#ffffff" y="-37.499999" height="449.999989" fill-opacity="1"/><rect x="-37.5" width="450" fill="#000d0e" y="-37.499999" height="449.999989" fill-opacity="1"/><g clip-path="url(#id1)"><g clip-path="url(#id2)"><path fill="url(#id3)" d="M 152.644531 85.109375 L 152.644531 205.335938 L 222.925781 205.335938 L 222.925781 85.109375 Z M 152.644531 85.109375 " fill-rule="nonzero"/></g></g><g fill="#d9d9d9" fill-opacity="1"><g transform="translate(147.021929, 259.723013)"><g><path d="M 16.390625 -35.125 C 20.878906 -35.125 23.125 -32.738281 23.125 -27.96875 L 23.125 -20.953125 C 23.125 -16.179688 20.878906 -13.796875 16.390625 -13.796875 L 10.265625 -13.796875 L 10.265625 0 L 2.65625 0 L 2.65625 -35.125 Z M 15.53125 -20.09375 L 15.53125 -28.828125 C 15.53125 -29.117188 15.429688 -29.375 15.234375 -29.59375 C 15.035156 -29.8125 14.789062 -29.921875 14.5 -29.921875 L 10.265625 -29.921875 L 10.265625 -19 L 14.5 -19 C 14.789062 -19 15.035156 -19.109375 15.234375 -19.328125 C 15.429688 -19.546875 15.53125 -19.800781 15.53125 -20.09375 Z M 15.53125 -20.09375 "/></g></g></g><g fill="#d9d9d9" fill-opacity="1"><g transform="translate(177.157108, 259.723013)"><g><path d="M 23.078125 -35.125 L 17.484375 -17.59375 L 23.78125 0 L 15.859375 0 L 12.15625 -12.265625 L 8.46875 0 L 0.484375 0 L 6.78125 -17.59375 L 1.296875 -35.125 L 8.6875 -35.125 L 12.15625 -23.78125 L 15.640625 -35.125 Z M 23.078125 -35.125 "/></g></g></g><g fill="#d9d9d9" fill-opacity="1"><g transform="translate(207.563764, 259.723013)"><g><path d="M 10.3125 -6.296875 L 18.734375 -6.296875 L 18.734375 0 L 2.71875 0 L 2.71875 -35.125 L 18.734375 -35.125 L 18.734375 -28.9375 L 10.3125 -28.9375 L 10.3125 -20.6875 L 18.1875 -20.6875 L 18.1875 -14.71875 L 10.3125 -14.71875 Z M 10.3125 -6.296875 "/></g></g></g><g fill="#38cdb9" fill-opacity="1"><g transform="translate(129.794843, 289.777099)"><g><path d="M 5.125 -10.96875 C 6.5 -10.96875 7.1875 -10.234375 7.1875 -8.765625 L 7.1875 0 L 4.859375 0 L 4.859375 -3.625 L 3.171875 -3.625 L 3.171875 0 L 0.828125 0 L 0.828125 -8.765625 C 0.828125 -10.234375 1.519531 -10.96875 2.90625 -10.96875 Z M 3.171875 -5.421875 L 4.859375 -5.421875 L 4.859375 -9.046875 C 4.859375 -9.128906 4.828125 -9.203125 4.765625 -9.265625 C 4.703125 -9.335938 4.625 -9.375 4.53125 -9.375 L 3.484375 -9.375 C 3.398438 -9.375 3.328125 -9.335938 3.265625 -9.265625 C 3.203125 -9.203125 3.171875 -9.128906 3.171875 -9.046875 Z M 3.171875 -5.421875 "/></g></g></g><g fill="#38cdb9" fill-opacity="1"><g transform="translate(140.734915, 289.777099)"><g/></g></g><g fill="#38cdb9" fill-opacity="1"><g transform="translate(146.95573, 289.777099)"><g><path d="M 3.171875 -4.234375 L 3.171875 0 L 0.828125 0 L 0.828125 -10.796875 L 5.703125 -10.796875 L 5.703125 -8.78125 L 3.171875 -8.78125 L 3.171875 -6.1875 L 5.546875 -6.1875 L 5.546875 -4.234375 Z M 3.171875 -4.234375 "/></g></g></g><g fill="#38cdb9" fill-opacity="1"><g transform="translate(156.044778, 289.777099)"><g><path d="M 3.171875 -4.421875 L 3.171875 0 L 0.828125 0 L 0.828125 -10.796875 L 4.984375 -10.796875 C 6.367188 -10.796875 7.0625 -10.0625 7.0625 -8.59375 L 7.0625 -7.34375 C 7.0625 -6.445312 6.742188 -5.878906 6.109375 -5.640625 C 6.660156 -5.441406 6.9375 -4.984375 6.9375 -4.265625 L 6.9375 0 L 4.609375 0 L 4.609375 -4.09375 C 4.609375 -4.3125 4.5 -4.421875 4.28125 -4.421875 Z M 3.171875 -9.21875 L 3.171875 -6.0625 L 4.40625 -6.0625 C 4.488281 -6.0625 4.5625 -6.09375 4.625 -6.15625 C 4.6875 -6.21875 4.71875 -6.296875 4.71875 -6.390625 L 4.71875 -8.875 C 4.71875 -8.96875 4.6875 -9.046875 4.625 -9.109375 C 4.5625 -9.179688 4.488281 -9.21875 4.40625 -9.21875 Z M 3.171875 -9.21875 "/></g></g></g><g fill="#38cdb9" fill-opacity="1"><g transform="translate(166.617974, 289.777099)"><g><path d="M 5.125 -10.96875 C 6.5 -10.96875 7.1875 -10.234375 7.1875 -8.765625 L 7.1875 0 L 4.859375 0 L 4.859375 -3.625 L 3.171875 -3.625 L 3.171875 0 L 0.828125 0 L 0.828125 -8.765625 C 0.828125 -10.234375 1.519531 -10.96875 2.90625 -10.96875 Z M 3.171875 -5.421875 L 4.859375 -5.421875 L 4.859375 -9.046875 C 4.859375 -9.128906 4.828125 -9.203125 4.765625 -9.265625 C 4.703125 -9.335938 4.625 -9.375 4.53125 -9.375 L 3.484375 -9.375 C 3.398438 -9.375 3.328125 -9.335938 3.265625 -9.265625 C 3.203125 -9.203125 3.171875 -9.128906 3.171875 -9.046875 Z M 3.171875 -5.421875 "/></g></g></g><g fill="#38cdb9" fill-opacity="1"><g transform="translate(177.558045, 289.777099)"><g><path d="M 3.15625 0 L 0.8125 0 L 0.8125 -8.765625 C 0.8125 -10.234375 1.503906 -10.96875 2.890625 -10.96875 L 4.125 -10.96875 C 4.9375 -10.96875 5.515625 -10.695312 5.859375 -10.15625 C 6.179688 -10.695312 6.757812 -10.96875 7.59375 -10.96875 L 8.828125 -10.96875 C 10.203125 -10.96875 10.890625 -10.234375 10.890625 -8.765625 L 10.890625 0 L 8.5625 0 L 8.5625 -8.96875 C 8.5625 -9.050781 8.53125 -9.125 8.46875 -9.1875 C 8.40625 -9.257812 8.332031 -9.296875 8.25 -9.296875 L 7.34375 -9.296875 C 7.25 -9.296875 7.171875 -9.257812 7.109375 -9.1875 C 7.054688 -9.125 7.03125 -9.050781 7.03125 -8.96875 L 7.03125 0 L 4.6875 0 L 4.6875 -8.96875 C 4.6875 -9.050781 4.65625 -9.125 4.59375 -9.1875 C 4.53125 -9.257812 4.457031 -9.296875 4.375 -9.296875 L 3.46875 -9.296875 C 3.382812 -9.296875 3.3125 -9.257812 3.25 -9.1875 C 3.1875 -9.125 3.15625 -9.050781 3.15625 -8.96875 Z M 3.15625 0 "/></g></g></g><g fill="#38cdb9" fill-opacity="1"><g transform="translate(192.066737, 289.777099)"><g><path d="M 3.171875 -1.9375 L 5.75 -1.9375 L 5.75 0 L 0.828125 0 L 0.828125 -10.796875 L 5.75 -10.796875 L 5.75 -8.890625 L 3.171875 -8.890625 L 3.171875 -6.359375 L 5.59375 -6.359375 L 5.59375 -4.515625 L 3.171875 -4.515625 Z M 3.171875 -1.9375 "/></g></g></g><g fill="#38cdb9" fill-opacity="1"><g transform="translate(201.189143, 289.777099)"><g><path d="M 4.828125 -10.796875 L 6.890625 -10.796875 L 8.140625 -2.671875 L 9.078125 -10.796875 L 11.34375 -10.796875 L 9.59375 0 L 6.9375 0 L 5.859375 -6.625 L 4.765625 0 L 2.125 0 L 0.359375 -10.796875 L 2.640625 -10.796875 L 3.578125 -2.671875 Z M 4.828125 -10.796875 "/></g></g></g><g fill="#38cdb9" fill-opacity="1"><g transform="translate(215.83124, 289.777099)"><g><path d="M 7.1875 -8.765625 L 7.1875 -2.03125 C 7.1875 -0.5625 6.5 0.171875 5.125 0.171875 L 2.90625 0.171875 C 1.519531 0.171875 0.828125 -0.5625 0.828125 -2.03125 L 0.828125 -8.765625 C 0.828125 -10.234375 1.519531 -10.96875 2.90625 -10.96875 L 5.125 -10.96875 C 6.5 -10.96875 7.1875 -10.234375 7.1875 -8.765625 Z M 4.859375 -1.765625 L 4.859375 -9.046875 C 4.859375 -9.128906 4.828125 -9.203125 4.765625 -9.265625 C 4.703125 -9.335938 4.625 -9.375 4.53125 -9.375 L 3.484375 -9.375 C 3.398438 -9.375 3.328125 -9.335938 3.265625 -9.265625 C 3.203125 -9.203125 3.171875 -9.128906 3.171875 -9.046875 L 3.171875 -1.765625 C 3.171875 -1.679688 3.203125 -1.601562 3.265625 -1.53125 C 3.328125 -1.46875 3.398438 -1.4375 3.484375 -1.4375 L 4.53125 -1.4375 C 4.625 -1.4375 4.703125 -1.46875 4.765625 -1.53125 C 4.828125 -1.601562 4.859375 -1.679688 4.859375 -1.765625 Z M 4.859375 -1.765625 "/></g></g></g><g fill="#38cdb9" fill-opacity="1"><g transform="translate(226.754642, 289.777099)"><g><path d="M 3.171875 -4.421875 L 3.171875 0 L 0.828125 0 L 0.828125 -10.796875 L 4.984375 -10.796875 C 6.367188 -10.796875 7.0625 -10.0625 7.0625 -8.59375 L 7.0625 -7.34375 C 7.0625 -6.445312 6.742188 -5.878906 6.109375 -5.640625 C 6.660156 -5.441406 6.9375 -4.984375 6.9375 -4.265625 L 6.9375 0 L 4.609375 0 L 4.609375 -4.09375 C 4.609375 -4.3125 4.5 -4.421875 4.28125 -4.421875 Z M 3.171875 -9.21875 L 3.171875 -6.0625 L 4.40625 -6.0625 C 4.488281 -6.0625 4.5625 -6.09375 4.625 -6.15625 C 4.6875 -6.21875 4.71875 -6.296875 4.71875 -6.390625 L 4.71875 -8.875 C 4.71875 -8.96875 4.6875 -9.046875 4.625 -9.109375 C 4.5625 -9.179688 4.488281 -9.21875 4.40625 -9.21875 Z M 3.171875 -9.21875 "/></g></g></g><g fill="#38cdb9" fill-opacity="1"><g transform="translate(237.327837, 289.777099)"><g><path d="M 7.5625 -10.796875 L 5.71875 -5.84375 L 7.90625 0 L 5.53125 0 L 3.921875 -4.265625 L 3.171875 -4.265625 L 3.171875 0 L 0.828125 0 L 0.828125 -10.796875 L 3.171875 -10.796875 L 3.171875 -6.28125 L 3.734375 -6.28125 L 5.421875 -10.796875 Z M 7.5625 -10.796875 "/></g></g></g></svg>